<mxfile host="app.diagrams.net" modified="2024-04-02T06:21:07.736Z" agent="Mozilla/5.0 (Windows NT 10.0; Win64; x64) AppleWebKit/537.36 (KHTML, like Gecko) Chrome/123.0.0.0 Safari/537.36" version="24.2.1" etag="qF5QGFGh6iEJPWgwdk_0" type="github">
  <diagram name="第 1 页" id="KL2llMp5HnI4A2lRHWNa">
    <mxGraphModel>
      <root>
        <mxCell id="0" />
        <mxCell id="1" parent="0" />
      </root>
    </mxGraphModel>
  </diagram>
</mxfile>
